<svg xmlns="http://www.w3.org/2000/svg" width="192" height="192" viewBox="0 0 192 192">
  <rect width="192" height="192" rx="24" fill="#faf6ed"/>
  <rect x="16" y="16" width="160" height="160" rx="16" fill="#5a4a3a" opacity="0.08"/>
  <!-- Chessboard pattern -->
  <g opacity="0.12">
    <rect x="36" y="30" width="30" height="30" fill="#5a4a3a"/>
    <rect x="96" y="30" width="30" height="30" fill="#5a4a3a"/>
    <rect x="66" y="60" width="30" height="30" fill="#5a4a3a"/>
    <rect x="126" y="60" width="30" height="30" fill="#5a4a3a"/>
    <rect x="36" y="60" width="30" height="30" fill="none"/>
    <rect x="96" y="60" width="30" height="30" fill="none"/>
  </g>
  <!-- Crown / King piece silhouette -->
  <g transform="translate(96, 85)">
    <path d="M-35 40 L-40 10 L-25 25 L-12 0 L0 -20 L12 0 L25 25 L40 10 L35 40 Z"
          fill="#5a4a3a" stroke="#3a2a1a" stroke-width="2"/>
    <rect x="-38" y="40" width="76" height="10" rx="3" fill="#5a4a3a" stroke="#3a2a1a" stroke-width="2"/>
    <circle cx="0" cy="-20" r="6" fill="#c9a84c" stroke="#3a2a1a" stroke-width="1.5"/>
  </g>
  <!-- Title -->
  <text x="96" y="168" text-anchor="middle" font-size="20" font-family="Georgia, serif" fill="#5a4a3a" font-weight="bold">WAR CHESS</text>
</svg>
