<svg xmlns="http://www.w3.org/2000/svg" width="512" height="512" viewBox="0 0 512 512">
  <rect width="512" height="512" rx="64" fill="#faf6ed"/>
  <rect x="32" y="32" width="448" height="448" rx="40" fill="#5a4a3a" opacity="0.06"/>
  <!-- Chessboard pattern background -->
  <g opacity="0.10">
    <rect x="80" y="60" width="55" height="55" fill="#5a4a3a"/>
    <rect x="190" y="60" width="55" height="55" fill="#5a4a3a"/>
    <rect x="300" y="60" width="55" height="55" fill="#5a4a3a"/>
    <rect x="135" y="115" width="55" height="55" fill="#5a4a3a"/>
    <rect x="245" y="115" width="55" height="55" fill="#5a4a3a"/>
    <rect x="355" y="115" width="55" height="55" fill="#5a4a3a"/>
  </g>
  <!-- Crown / King piece -->
  <g transform="translate(256, 230)">
    <path d="M-90 110 L-105 25 L-65 70 L-32 0 L0 -55 L32 0 L65 70 L105 25 L90 110 Z"
          fill="#5a4a3a" stroke="#3a2a1a" stroke-width="4"/>
    <rect x="-98" y="110" width="196" height="26" rx="6" fill="#5a4a3a" stroke="#3a2a1a" stroke-width="4"/>
    <circle cx="0" cy="-55" r="16" fill="#c9a84c" stroke="#3a2a1a" stroke-width="3"/>
    <!-- Crown jewels -->
    <circle cx="-32" cy="0" r="8" fill="#c9a84c" opacity="0.7"/>
    <circle cx="32" cy="0" r="8" fill="#c9a84c" opacity="0.7"/>
  </g>
  <!-- Title -->
  <text x="256" y="440" text-anchor="middle" font-size="54" font-family="Georgia, serif" fill="#5a4a3a" font-weight="bold">WAR CHESS</text>
  <text x="256" y="475" text-anchor="middle" font-size="22" font-family="Georgia, serif" fill="#8a7a6a">The Chess Chronicle</text>
</svg>
